<svg width="464" height="100" viewBox="0 0 464 100" fill="none" xmlns="http://www.w3.org/2000/svg">
<g clip-path="url(#mindlylogo)">
<path d="M125 100C152.614 100 175 77.6142 175 50C175 22.3858 152.614 0 125 0C97.3858 0 75 22.3858 75 50C75 77.6142 97.3858 100 125 100Z" fill="#F94E26"/>
<path d="M75 100C61.7392 100 49.0215 94.7322 39.6447 85.3553C30.2678 75.9785 25 63.2608 25 50C25 36.7392 30.2678 24.0215 39.6447 14.6447C49.0215 5.26784 61.7392 0 75 0V100Z" fill="#FCAF15"/>
<path d="M25 0H0V100H25V0Z" fill="#01796F"/>
<path d="M213.46 84.2228C213.993 84.1984 214.525 84.2854 215.023 84.4782C215.52 84.6711 215.972 84.9655 216.35 85.3428C216.729 85.7649 217.02 86.258 217.207 86.7936C217.394 87.3291 217.473 87.8965 217.44 88.4628V95.3928H216.35V88.4628C216.405 87.6013 216.118 86.753 215.55 86.1028C215.276 85.8244 214.946 85.6067 214.583 85.4637C214.219 85.3208 213.83 85.2557 213.44 85.2728C212.994 85.2574 212.551 85.3393 212.14 85.5128C211.73 85.6869 211.365 85.9499 211.07 86.2828C210.402 87.134 210.078 88.2042 210.16 89.2828V95.3828H209.06V88.4628C209.116 87.6097 208.848 86.7667 208.31 86.1028C208.049 85.8211 207.727 85.6023 207.37 85.4628C207.018 85.32 206.639 85.2552 206.26 85.2728C205.809 85.2587 205.36 85.3406 204.942 85.513C204.525 85.6854 204.149 85.9443 203.84 86.2728C203.135 87.1079 202.777 88.1816 202.84 89.2728V95.3728H201.8V84.4628H202.89V86.3428C203.208 85.686 203.71 85.1358 204.335 84.7594C204.96 84.3829 205.681 84.1965 206.41 84.2228C207.151 84.2121 207.879 84.4134 208.51 84.8028C209.111 85.1991 209.57 85.7772 209.82 86.4528C210.155 85.7549 210.691 85.1733 211.36 84.7828C211.998 84.4142 212.723 84.221 213.46 84.2228Z" fill="#333333"/>
<path d="M225.44 84.2215C226.176 84.1969 226.909 84.3378 227.584 84.6337C228.259 84.9296 228.859 85.3731 229.34 85.9315C230.323 87.0301 230.858 88.4574 230.84 89.9315V90.4615H220.91C220.99 91.6171 221.522 92.6947 222.39 93.4615C223.142 94.081 224.06 94.4637 225.03 94.5615C225.997 94.6606 226.972 94.4801 227.84 94.0415C228.462 93.711 228.978 93.2119 229.33 92.6015L230.33 93.1715C229.868 93.9407 229.199 94.5645 228.4 94.9715C227.522 95.4228 226.547 95.6528 225.56 95.6415C224.799 95.6661 224.041 95.5372 223.332 95.2622C222.622 94.9873 221.975 94.5721 221.43 94.0415C220.662 93.2061 220.14 92.1742 219.923 91.0603C219.706 89.9465 219.802 88.7942 220.2 87.7315C220.611 86.6739 221.339 85.7692 222.284 85.141C223.229 84.5127 224.345 84.1916 225.48 84.2215H225.44ZM225.44 85.2215C224.295 85.1889 223.182 85.6052 222.34 86.3815C221.499 87.163 220.987 88.2359 220.91 89.3815H229.7C229.636 88.2408 229.139 87.1677 228.31 86.3815C227.531 85.6565 226.504 85.259 225.44 85.2715V85.2215Z" fill="#333333"/>
<path d="M238.41 84.2176C238.979 84.1914 239.548 84.2837 240.079 84.4885C240.611 84.6933 241.095 85.0063 241.5 85.4076C242.287 86.2779 242.697 87.4252 242.64 88.5976V95.3976H241.52V88.5876C241.568 87.7019 241.266 86.8328 240.68 86.1676C240.371 85.858 240 85.6176 239.592 85.4624C239.183 85.3073 238.746 85.2408 238.31 85.2676C237.796 85.2473 237.284 85.3394 236.81 85.5376C236.335 85.7304 235.906 86.0199 235.55 86.3876C234.783 87.2822 234.399 88.4422 234.48 89.6176V95.3876H233.39V84.4576H234.48V86.5376C234.831 85.805 235.392 85.1933 236.092 84.7802C236.792 84.3672 237.598 84.1713 238.41 84.2176Z" fill="#333333"/>
<path d="M251.33 85.5284H248.07V92.6384C248.029 93.1152 248.153 93.5914 248.42 93.9884C248.554 94.141 248.722 94.2608 248.91 94.3384C249.092 94.4185 249.29 94.4593 249.49 94.4584C250.102 94.5134 250.718 94.5134 251.33 94.4584V95.4584C250.23 95.7217 249.074 95.6163 248.04 95.1584C247.651 94.875 247.348 94.4897 247.164 94.045C246.981 93.6003 246.924 93.1135 247 92.6384V85.5284H244.6V84.4584H247V81.7184L248.12 81.3984V84.4584H251.38L251.33 85.5284Z" fill="#333333"/>
<path d="M262.91 84.4629H264V95.3929H262.88V92.9229C262.442 93.7572 261.776 94.4505 260.96 94.9229C260.118 95.4141 259.156 95.6633 258.18 95.6429C256.669 95.6429 255.219 95.0423 254.15 93.9734C253.081 92.9044 252.48 91.4546 252.48 89.9429C252.48 88.4311 253.081 86.9813 254.15 85.9124C255.219 84.8434 256.669 84.2429 258.18 84.2429C259.173 84.2271 260.15 84.4904 261 85.0029C261.811 85.4823 262.475 86.1738 262.92 87.0029L262.91 84.4629ZM255 93.2329C255.872 94.103 257.054 94.5918 258.285 94.5918C259.517 94.5918 260.699 94.103 261.57 93.2329C262.429 92.3451 262.91 91.1582 262.91 89.9229C262.91 88.6875 262.429 87.5006 261.57 86.6129C260.696 85.7475 259.516 85.2621 258.285 85.2621C257.055 85.2621 255.875 85.7475 255 86.6129C254.134 87.4969 253.649 88.6853 253.649 89.9229C253.649 91.1605 254.134 92.3488 255 93.2329Z" fill="#333333"/>
<path d="M267.39 95.3906V79.3906H268.49V95.3906H267.39Z" fill="#333333"/>
<path d="M282.7 84.2238C283.27 84.197 283.838 84.2889 284.37 84.4938C284.902 84.6987 285.386 85.012 285.79 85.4138C286.184 85.8422 286.488 86.3453 286.683 86.8932C286.879 87.4412 286.963 88.0228 286.93 88.6038V95.4038H285.82V88.5938C285.845 88.1543 285.783 87.7142 285.637 87.2989C285.491 86.8836 285.264 86.5012 284.97 86.1738C284.662 85.8642 284.291 85.6238 283.882 85.4686C283.473 85.3134 283.036 85.247 282.6 85.2738C282.09 85.2526 281.581 85.3448 281.11 85.5438C280.633 85.7317 280.203 86.0218 279.85 86.3938C279.08 87.2862 278.695 88.4479 278.78 89.6238V95.3938H277.7V80.0938H278.79V86.5438C279.136 85.811 279.693 85.1986 280.39 84.7851C281.087 84.3717 281.891 84.1762 282.7 84.2238Z" fill="#333333"/>
<path d="M294.94 84.2213C295.676 84.1975 296.409 84.3386 297.083 84.6345C297.758 84.9304 298.358 85.3735 298.84 85.9313C299.823 87.03 300.358 88.4573 300.34 89.9313V90.4613H290.44C290.521 91.6146 291.048 92.6909 291.91 93.4613C292.664 94.0772 293.581 94.4595 294.55 94.5613C295.52 94.6618 296.499 94.4813 297.37 94.0413C297.989 93.7102 298.502 93.2111 298.85 92.6013L299.85 93.1713C299.382 93.9359 298.715 94.5583 297.92 94.9713C297.042 95.4227 296.067 95.6527 295.08 95.6413C294.319 95.666 293.561 95.537 292.852 95.2621C292.142 94.9872 291.495 94.572 290.95 94.0413C290.412 93.5066 289.99 92.8663 289.711 92.1607C289.432 91.4552 289.302 90.6995 289.33 89.9413C289.309 89.1901 289.439 88.4422 289.71 87.7413C289.978 87.0398 290.386 86.4002 290.91 85.8613C291.431 85.3229 292.058 84.899 292.752 84.6166C293.446 84.3343 294.191 84.1996 294.94 84.2213ZM294.94 85.2213C293.794 85.1866 292.681 85.6032 291.84 86.3813C290.999 87.1629 290.487 88.2358 290.41 89.3813H299.2C299.14 88.2419 298.646 87.1685 297.82 86.3813C297.039 85.653 296.007 85.2552 294.94 85.2713V85.2213Z" fill="#333333"/>
<path d="M312.52 84.4636H313.63V95.3936H312.52V92.9236C312.073 93.7552 311.405 94.4472 310.59 94.9236C309.75 95.4136 308.792 95.6627 307.82 95.6436C306.308 95.6436 304.859 95.0431 303.79 93.9741C302.721 92.9052 302.12 91.4554 302.12 89.9436C302.12 88.4319 302.721 86.9821 303.79 85.9131C304.859 84.8442 306.308 84.2436 307.82 84.2436C308.777 84.2212 309.721 84.4621 310.55 84.9401C311.379 85.418 312.06 86.1145 312.52 86.9536V84.4636ZM304.61 93.2336C305.482 94.1038 306.663 94.5925 307.895 94.5925C309.127 94.5925 310.308 94.1038 311.18 93.2336C312.039 92.3459 312.519 91.1589 312.519 89.9236C312.519 88.6883 312.039 87.5014 311.18 86.6136C310.306 85.7483 309.125 85.2629 307.895 85.2629C306.665 85.2629 305.484 85.7483 304.61 86.6136C303.744 87.4977 303.259 88.686 303.259 89.9236C303.259 91.1612 303.744 92.3495 304.61 93.2336Z" fill="#333333"/>
<path d="M317 95.3906V79.3906H318.09V95.3906H317Z" fill="#333333"/>
<path d="M327.05 85.5284H323.8V92.6384C323.751 93.1159 323.875 93.595 324.15 93.9884C324.283 94.1386 324.447 94.258 324.63 94.3384C324.817 94.4174 325.018 94.4582 325.22 94.4584C325.829 94.5135 326.442 94.5135 327.05 94.4584V95.4584C325.95 95.7202 324.795 95.6148 323.76 95.1584C323.376 94.8857 323.072 94.5138 322.882 94.0825C322.692 93.6511 322.622 93.1763 322.68 92.7084V85.5284H320.28V84.4584H322.68V81.7184L323.8 81.3984V84.4584H327.05V85.5284Z" fill="#333333"/>
<path d="M334.69 84.2238C335.259 84.1976 335.828 84.2898 336.36 84.4947C336.892 84.6995 337.375 85.0125 337.78 85.4138C338.568 86.2841 338.978 87.4314 338.92 88.6038V95.4038H337.8V88.5938C337.848 87.7081 337.547 86.839 336.96 86.1738C336.651 85.8642 336.28 85.6238 335.872 85.4686C335.463 85.3134 335.026 85.247 334.59 85.2738C334.079 85.2573 333.57 85.3485 333.096 85.5415C332.622 85.7344 332.194 86.0248 331.84 86.3938C331.457 86.8345 331.165 87.3469 330.981 87.9014C330.797 88.4559 330.725 89.0413 330.77 89.6238V95.3938H329.67V80.0938H330.77V86.5438C331.119 85.8111 331.678 85.199 332.376 84.7858C333.074 84.3725 333.88 84.1768 334.69 84.2238Z" fill="#333333"/>
<path d="M359.89 94.9984L358.89 95.5884L357.13 93.7384C356.558 94.3766 355.851 94.8792 355.061 95.2097C354.27 95.5401 353.416 95.69 352.56 95.6484C351.244 95.7191 349.948 95.3026 348.92 94.4784C348.474 94.0915 348.121 93.6092 347.888 93.0674C347.654 92.5255 347.545 91.938 347.57 91.3484C347.562 90.409 347.837 89.4891 348.36 88.7084C348.909 87.889 349.694 87.2547 350.61 86.8884C349.844 86.0739 349.407 85.0057 349.38 83.8884C349.362 83.3385 349.467 82.7916 349.69 82.2884C349.92 81.7788 350.261 81.3276 350.69 80.9684C351.538 80.2348 352.629 79.8427 353.75 79.8684C354.682 79.8563 355.597 80.1208 356.38 80.6284C357.133 81.1392 357.701 81.8791 358 82.7384L357 83.2984C356.774 82.6085 356.33 82.0109 355.735 81.5959C355.139 81.1809 354.425 80.9711 353.7 80.9984C352.862 80.9595 352.041 81.2462 351.41 81.7984C351.122 82.0562 350.893 82.3735 350.74 82.7284C350.583 83.0838 350.507 83.47 350.52 83.8584C350.509 84.4 350.651 84.9336 350.93 85.3984C351.286 85.9579 351.702 86.4776 352.17 86.9484L356.96 91.9484C357.458 90.9987 357.773 89.9642 357.89 88.8984L358.89 89.4884C358.727 90.6581 358.34 91.7854 357.75 92.8084L359.89 94.9984ZM352.48 94.5384C353.198 94.566 353.914 94.4331 354.575 94.1494C355.236 93.8657 355.825 93.4383 356.3 92.8984L351.41 87.7584C350.604 88.0239 349.904 88.5387 349.41 89.2284C348.979 89.8477 348.749 90.5841 348.75 91.3384C348.726 91.7804 348.804 92.222 348.977 92.6294C349.15 93.0367 349.415 93.399 349.75 93.6884C350.532 94.2908 351.504 94.5924 352.49 94.5384H352.48Z" fill="#333333"/>
<path d="M381.27 84.4609H382.35L379 95.3909H377.8L374.71 86.0009L371.64 95.3909H370.43L367 84.4609H368.12L371.11 94.0009L374.17 84.4909H375.34L378.34 93.9309L381.27 84.4609Z" fill="#333333"/>
<path d="M389.32 84.2234C390.056 84.1995 390.789 84.3407 391.464 84.6365C392.139 84.9324 392.739 85.3755 393.22 85.9334C394.199 87.0345 394.733 88.4601 394.72 89.9334V90.4634H384.82C384.856 91.0355 385.004 91.595 385.256 92.1097C385.508 92.6245 385.86 93.0845 386.29 93.4634C387.044 94.0793 387.962 94.4616 388.93 94.5634C389.9 94.6639 390.879 94.4834 391.75 94.0434C392.369 93.7122 392.882 93.2131 393.23 92.6034L394.23 93.1734C393.769 93.9399 393.105 94.5631 392.31 94.9734C391.432 95.4235 390.457 95.6535 389.47 95.6434C388.7 95.6682 387.933 95.5356 387.216 95.2536C386.499 94.9716 385.847 94.5462 385.3 94.0034C384.76 93.4701 384.337 92.8301 384.058 92.1241C383.779 91.4182 383.65 90.6618 383.68 89.9034C383.66 89.1521 383.789 88.4043 384.06 87.7034C384.328 87.0018 384.737 86.3622 385.26 85.8234C385.788 85.2884 386.422 84.8697 387.121 84.5941C387.82 84.3186 388.569 84.1923 389.32 84.2234ZM389.32 85.2234C388.172 85.1903 387.056 85.6064 386.21 86.3834C385.376 87.1689 384.869 88.2402 384.79 89.3834H393.58C393.516 88.2427 393.019 87.1695 392.19 86.3834C391.414 85.6539 390.385 85.2556 389.32 85.2734V85.2234Z" fill="#333333"/>
<path d="M397.28 95.3906V79.3906H398.37V95.3906H397.28Z" fill="#333333"/>
<path d="M401.74 95.3906V79.3906H402.83V95.3906H401.74Z" fill="#333333"/>
<path d="M412 84.2181C413.472 84.2798 414.863 84.9078 415.882 85.9709C416.902 87.0341 417.471 88.4501 417.471 89.9231C417.471 91.3962 416.902 92.8122 415.882 93.8753C414.863 94.9385 413.472 95.5665 412 95.6281C411.019 95.6382 410.054 95.3788 409.21 94.8781C408.398 94.4043 407.736 93.7111 407.3 92.8781V95.4081H406.2V80.0781H407.3V86.9981C407.736 86.1651 408.398 85.472 409.21 84.9981C410.053 84.4961 411.019 84.2398 412 84.2581V84.2181ZM408.64 93.2181C409.294 93.8656 410.124 94.3053 411.027 94.4816C411.93 94.658 412.864 94.5633 413.713 94.2094C414.562 93.8554 415.288 93.2581 415.798 92.4927C416.308 91.7273 416.58 90.828 416.58 89.9081C416.58 88.9883 416.308 88.089 415.798 87.3236C415.288 86.5581 414.562 85.9608 413.713 85.6069C412.864 85.253 411.93 85.1582 411.027 85.3346C410.124 85.511 409.294 85.9506 408.64 86.5981C407.774 87.4822 407.289 88.6705 407.289 89.9081C407.289 91.1457 407.774 92.334 408.64 93.2181Z" fill="#333333"/>
<path d="M425.21 84.2208C425.948 84.1997 426.681 84.342 427.357 84.6377C428.033 84.9333 428.635 85.3749 429.12 85.9308C430.1 87.0304 430.632 88.4579 430.61 89.9308V90.4608H420.7C420.78 91.6164 421.312 92.694 422.18 93.4608C422.932 94.0803 423.851 94.463 424.82 94.5608C425.787 94.6611 426.763 94.4805 427.63 94.0408C428.252 93.7103 428.769 93.2112 429.12 92.6008L430.12 93.1708C429.657 93.935 428.993 94.5575 428.2 94.9708C427.318 95.421 426.34 95.6509 425.35 95.6408C424.59 95.6654 423.832 95.5365 423.122 95.2615C422.413 94.9866 421.766 94.5714 421.22 94.0408C420.682 93.5061 420.26 92.8658 419.981 92.1602C419.703 91.4546 419.573 90.699 419.6 89.9408C419.578 89.188 419.709 88.4386 419.984 87.7375C420.259 87.0363 420.672 86.398 421.2 85.8608C421.722 85.3292 422.347 84.9097 423.036 84.6277C423.726 84.3457 424.465 84.2073 425.21 84.2208ZM425.21 85.2208C424.065 85.1882 422.953 85.6045 422.11 86.3808C421.276 87.1663 420.769 88.2377 420.69 89.3808H429.48C429.416 88.2401 428.919 87.167 428.09 86.3808C427.311 85.6498 426.278 85.2515 425.21 85.2708V85.2208Z" fill="#333333"/>
<path d="M434.33 81.5593C434.251 81.6409 434.156 81.7058 434.051 81.7501C433.947 81.7945 433.834 81.8173 433.72 81.8173C433.607 81.8173 433.494 81.7945 433.389 81.7501C433.284 81.7058 433.19 81.6409 433.11 81.5593C433.019 81.4863 432.95 81.3893 432.91 81.2793C432.861 81.1733 432.84 81.0559 432.85 80.9393C432.846 80.8262 432.866 80.7135 432.91 80.6093C432.984 80.4571 433.099 80.3288 433.242 80.239C433.386 80.1492 433.551 80.1016 433.72 80.1016C433.889 80.1016 434.055 80.1492 434.198 80.239C434.342 80.3288 434.457 80.4571 434.53 80.6093C434.574 80.7135 434.595 80.8262 434.59 80.9393C434.596 81.0556 434.575 81.1717 434.53 81.2793C434.487 81.3874 434.419 81.4835 434.33 81.5593ZM433.17 95.3893V84.4593H434.27V95.3893H433.17Z" fill="#333333"/>
<path d="M442.64 84.2178C443.21 84.1897 443.779 84.2811 444.311 84.4861C444.843 84.691 445.326 85.005 445.73 85.4078C446.518 86.2781 446.928 87.4254 446.87 88.5978V95.3978H445.76V88.5878C445.785 88.1483 445.723 87.7082 445.577 87.2929C445.431 86.8776 445.204 86.4952 444.91 86.1678C444.602 85.8582 444.231 85.6178 443.822 85.4626C443.413 85.3074 442.976 85.241 442.54 85.2678C442.03 85.2466 441.521 85.3389 441.05 85.5378C440.573 85.7257 440.143 86.0158 439.79 86.3878C439.02 87.2802 438.635 88.4419 438.72 89.6178V95.3878H437.62V84.4578H438.72V86.5378C439.069 85.8051 439.628 85.193 440.326 84.7798C441.024 84.3665 441.83 84.1709 442.64 84.2178Z" fill="#333333"/>
<path d="M459.67 84.4603H460.76V94.8703C460.796 95.5727 460.675 96.2743 460.407 96.9246C460.139 97.5748 459.73 98.1574 459.21 98.6303C458.132 99.5617 456.743 100.051 455.32 100C454.209 100.031 453.107 99.7909 452.11 99.3003C451.268 98.8847 450.584 98.2076 450.16 97.3703L451.16 96.8303C451.826 98.237 453.226 98.9436 455.36 98.9503C456.528 99.0172 457.675 98.618 458.55 97.8403C458.946 97.4519 459.254 96.9832 459.454 96.4658C459.654 95.9484 459.741 95.3941 459.71 94.8403V92.8403C459.274 93.6733 458.612 94.3664 457.8 94.8403C456.957 95.3423 455.99 95.5986 455.01 95.5803C453.498 95.5803 452.048 94.9797 450.979 93.9108C449.91 92.8418 449.31 91.392 449.31 89.8803C449.31 88.3685 449.91 86.9187 450.979 85.8498C452.048 84.7808 453.498 84.1803 455.01 84.1803C455.991 84.1655 456.958 84.4253 457.8 84.9303C458.612 85.4041 459.274 86.0973 459.71 86.9303L459.67 84.4603ZM451.75 93.2303C452.621 94.1005 453.803 94.5892 455.035 94.5892C456.266 94.5892 457.448 94.1005 458.32 93.2303C458.971 92.5803 459.414 91.7518 459.595 90.8495C459.775 89.9473 459.683 89.0119 459.331 88.1617C458.98 87.3115 458.384 86.5848 457.619 86.0735C456.854 85.5621 455.955 85.2892 455.035 85.2892C454.115 85.2892 453.215 85.5621 452.45 86.0735C451.685 86.5848 451.089 87.3115 450.738 88.1617C450.386 89.0119 450.294 89.9473 450.475 90.8495C450.655 91.7518 451.098 92.5803 451.75 93.2303Z" fill="#333333"/>
<path d="M242.58 16.7099C244.556 16.6188 246.529 16.9549 248.363 17.6953C250.197 18.4356 251.851 19.5628 253.21 20.9999C255.877 23.8932 257.21 27.7632 257.21 32.6099V56.4799H247.21V33.3399C247.323 31.3895 246.718 29.4652 245.51 27.9299C244.907 27.2732 244.165 26.7593 243.338 26.4254C242.511 26.0915 241.62 25.9462 240.73 25.9999C239.734 25.9445 238.739 26.1175 237.82 26.5057C236.902 26.894 236.084 27.4871 235.43 28.2399C234.16 29.7399 233.53 31.8999 233.53 34.7399V56.4799H223.53V33.3399C223.652 31.3883 223.047 29.4607 221.83 27.9299C221.227 27.2732 220.485 26.7593 219.658 26.4254C218.831 26.0915 217.94 25.9462 217.05 25.9999C216.056 25.9555 215.064 26.1335 214.147 26.521C213.23 26.9085 212.411 27.4957 211.75 28.2399C210.44 29.7399 209.75 31.8999 209.75 34.7399V56.4799H199.75V17.7899H209.75V21.8999C212.07 18.4399 215.657 16.7132 220.51 16.7199C225.25 16.7199 228.757 18.5766 231.03 22.2899C233.623 18.5699 237.473 16.7099 242.58 16.7099Z" fill="#333333"/>
<path d="M276.85 13.1519C275.23 13.1284 273.683 12.4717 272.541 11.3223C271.399 10.1729 270.753 8.62209 270.74 7.00189C270.729 6.19422 270.889 5.39343 271.21 4.6519C271.516 3.8988 271.976 3.21769 272.56 2.6519C273.107 2.06201 273.771 1.59211 274.51 1.27189C275.257 0.958359 276.059 0.796875 276.87 0.796875C277.68 0.796875 278.482 0.958359 279.23 1.27189C279.987 1.58872 280.669 2.06246 281.23 2.6619C281.814 3.22769 282.273 3.90879 282.58 4.66189C282.889 5.40326 283.049 6.19853 283.05 7.00189C283.059 7.80624 282.899 8.60353 282.58 9.3419C282.268 10.0774 281.808 10.7411 281.23 11.2919C280.664 11.8799 279.983 12.3449 279.229 12.658C278.476 12.9712 277.666 13.1257 276.85 13.1119V13.1519ZM271.85 56.4919V17.7919H281.85V56.4819L271.85 56.4919Z" fill="#333333"/>
<path d="M318.7 16.7088C320.651 16.6532 322.592 17.0061 324.398 17.7449C326.205 18.4837 327.837 19.592 329.19 20.9988C331.956 23.8321 333.336 27.7521 333.33 32.7588V56.4788H323.33V33.9988C323.403 32.9232 323.255 31.844 322.896 30.8276C322.537 29.8113 321.973 28.8792 321.24 28.0888C320.501 27.3881 319.629 26.8422 318.676 26.4833C317.723 26.1244 316.707 25.9597 315.69 25.9988C314.548 25.9452 313.407 26.131 312.341 26.5444C311.275 26.9577 310.307 27.5893 309.5 28.3988C307.96 29.9988 307.186 32.3988 307.18 35.5988V56.4688H297.18V17.7888H307.18V22.1288C309.6 18.5221 313.44 16.7155 318.7 16.7088Z" fill="#333333"/>
<path d="M377.34 2.32031H387.34V56.4803H377.34V51.9003C374.4 55.6736 370.22 57.557 364.8 57.5503C362.28 57.5759 359.785 57.0607 357.482 56.0394C355.179 55.0181 353.122 53.5146 351.45 51.6303C347.775 47.7101 345.788 42.5021 345.92 37.1303C345.784 31.7547 347.77 26.5418 351.45 22.6203C353.123 20.7376 355.18 19.2351 357.483 18.2139C359.786 17.1928 362.281 16.6767 364.8 16.7003C370.22 16.7003 374.4 18.5836 377.34 22.3503V2.32031ZM359 45.0003C361.075 46.9595 363.821 48.0509 366.675 48.0509C369.529 48.0509 372.274 46.9595 374.35 45.0003C375.355 43.9612 376.14 42.7289 376.655 41.3778C377.171 40.0268 377.407 38.5852 377.35 37.1403C377.406 35.697 377.17 34.2571 376.654 32.9078C376.139 31.5586 375.355 30.3279 374.35 29.2903C373.354 28.2821 372.16 27.4906 370.843 26.9658C369.527 26.4409 368.116 26.1939 366.7 26.2403C365.276 26.1977 363.859 26.4463 362.535 26.9708C361.211 27.4952 360.008 28.2845 359 29.2903C357.982 30.3212 357.185 31.5493 356.659 32.8992C356.132 34.2491 355.888 35.6924 355.94 37.1403C355.887 38.5898 356.131 40.0348 356.658 41.3865C357.184 42.7381 357.981 43.9679 359 45.0003Z" fill="#333333"/>
<path d="M402.64 56.48V0H412.64V56.48H402.64Z" fill="#333333"/>
<path d="M453.16 17.7891H463.83L449.73 56.5391C447.73 62.0591 445.064 66.0591 441.73 68.5391C438.397 71.0191 434.264 72.1724 429.33 71.9991V62.6591C431.591 62.8334 433.845 62.2339 435.72 60.9591C437.505 59.4616 438.809 57.4724 439.47 55.2391L423.61 17.7891H434.52L444.6 43.7891L453.16 17.7891Z" fill="#333333"/>
</g>
<defs>
<clipPath id="mindlylogo">
<rect width="463.83" height="100" fill="white"/>
</clipPath>
</defs>
</svg>
